<svg id="e00686c4-ddce-481d-8196-aaa0b13a8a3e" data-name="Layer 1" xmlns="http://www.w3.org/2000/svg" width="865.76" height="682.89" viewBox="0 0 865.76 682.89"><path d="M525.39,207.26S540.48,202,548.11,189a27.2,27.2,0,0,0-.34-27.55c-5.27-9-14.78-20.92-26.73-17.42l-6.74,3.51s-7.92-24.18-24.95-25.35c-1.59-.39-9.51.78-15.06,7.8Z" fill="#c68662"/><path d="M525.39,207.26S540.48,202,548.11,189a27.2,27.2,0,0,0-.34-27.55c-5.27-9-14.78-20.92-26.73-17.42l-6.74,3.51s-7.92-24.18-24.95-25.35c-1.59-.39-9.51.78-15.06,7.8Z" opacity="0.2"/><path d="M294.5,545.73a16.58,16.58,0,0,1-8.56-2.38L52.79,402.78a7.1,7.1,0,0,1-.65-11.73l8-6.16.22,0,359,66.92.09.06,10.27,7.38a8.28,8.28,0,0,1-.8,13.95l-126.36,70.4A16.59,16.59,0,0,1,294.5,545.73ZM60.43,386l-7.68,5.9a6.1,6.1,0,0,0,.56,10.08L286.46,542.5a15.6,15.6,0,0,0,15.61.26l126.36-70.4a7.27,7.27,0,0,0,.7-12.26L419,452.79Z" fill="#c68662"/><path d="M60,382.55l-.48,12.72a4.63,4.63,0,0,0,2.22,4.12L286.23,536.33a13.09,13.09,0,0,0,13.08.33L424.9,468.35a3.15,3.15,0,0,0,1.63-2.59l.58-10.35Z" fill="#2f2e41"/><path d="M59.93,383.2a6.67,6.67,0,0,0,3.34,5.86L287.66,523.69a14.57,14.57,0,0,0,14.55.27l124.9-68.55s2.26-6.19-2.94-9.74h0L192,306.48,62.28,379.22A4.59,4.59,0,0,0,59.93,383.2Z" fill="#c68662"/><path d="M302.69,521.33,424,454a4.82,4.82,0,0,0,.14-8.34L192,306.48,62.28,379.22a3.54,3.54,0,0,0-.1,6.12l225,135.7A15.47,15.47,0,0,0,302.69,521.33Z" fill="#fff" opacity="0.64"/><path d="M63.39,387.24l-.52-.86,31.31-18.91a6.41,6.41,0,0,1,6-.31l2.22,1a5.76,5.76,0,0,0,5.25-.2l5.7-3.21.49.87-5.7,3.21a6.73,6.73,0,0,1-6.16.24l-2.22-1a5.39,5.39,0,0,0-5.07.26Z" fill="#c68662"/><polygon points="113.75 416.93 113.48 183.55 245.27 107.17 245.81 341.77 113.75 416.93" fill="#e6e7e8"/><path d="M113.25,417.79,113,183.27l.25-.15L245.77,106.3l.54,235.76-.25.14ZM114,183.84l.26,232.23,131.07-74.59L244.77,108Z" fill="#c68662"/><path d="M231.44,242.73a2.69,2.69,0,0,0-4-2.32l-72.81,41.08a9.47,9.47,0,0,0-4.8,8.29l.32,59.5a1.69,1.69,0,0,0,2.44,1.5L162.66,345l17.78-10.5L202,322.2l22.64,11.92-6.88-20.89,10.76-6.12a6.59,6.59,0,0,0,3.23-5.69Z" fill="#fff"/><path d="M151.83,351.46a2.13,2.13,0,0,1-1.14-.33,2.18,2.18,0,0,1-1-1.84l-.32-59.51a10,10,0,0,1,5.06-8.72L227.2,240a3.12,3.12,0,0,1,3.15,0,3.15,3.15,0,0,1,1.59,2.73l.33,58.69a7.1,7.1,0,0,1-3.47,6.12l-10.42,5.93,7.14,21.66L202,322.77l-21.34,12.14L162.91,345.4l-10.07,5.81A2.19,2.19,0,0,1,151.83,351.46Zm76.93-110.9a2.18,2.18,0,0,0-1.07.29l-72.81,41.08a8.94,8.94,0,0,0-4.55,7.85l.32,59.5a1.19,1.19,0,0,0,.57,1,1.18,1.18,0,0,0,1.15.05l10-5.79L180.19,334,202,321.63l21.78,11.47L217.18,313l11.12-6.32a6.1,6.1,0,0,0,3-5.26l-.33-58.69a2.16,2.16,0,0,0-1.09-1.87A2.13,2.13,0,0,0,228.76,240.56Z" fill="#2f2e41"/><path d="M233.54,405.75s-12.36,45.25-1.18,53.53c0,0,34.35,35.6,87.34,1.65,0,0,15.73-9.52,7.87-27.32,0,0-2.49-21.11-8.28-32.29l-64.58-17Z" fill="#2f2e41"/><path d="M477,370.74l-12.48-5.36a38.22,38.22,0,0,1-20.14-6.11s-15.54-9.43-10.7-11.47c0,0-7.64-3.57-3.06-5.35,0,0-7.13-5.1-3.05-5.61,0,0,1.78-6.88,14.27,2.3,0,0,10.44,7.64,13.76,6.62,0,0-7.14-7.64-2.3-7.39,0,0,7.9,1.79,13.25,14.27l13.87,4.81S479.26,365.38,477,370.74Z" fill="#f9b499"/><path d="M446.13,354.68a45.5,45.5,0,0,1-6.49-3,44.48,44.48,0,0,1-6-3.88,45.5,45.5,0,0,1,6.49,3A46.51,46.51,0,0,1,446.13,354.68Z" fill="#f7a48b"/><path d="M446.13,350.1A47.38,47.38,0,0,1,438,347a41.26,41.26,0,0,1-7.44-4.52c2.69,1.12,5.28,2.37,7.87,3.62S443.62,348.62,446.13,350.1Z" fill="#f7a48b"/><path d="M447.66,347a101.44,101.44,0,0,1-10.37-4.5c-1.68-.84-3.36-1.7-5-2.63a35.09,35.09,0,0,1-4.76-3.07c1.68.86,3.42,1.56,5.12,2.37s3.39,1.61,5.08,2.44C441.09,343.33,444.44,345.05,447.66,347Z" fill="#f7a48b"/><path d="M455.56,345.76a4.61,4.61,0,0,1,1.2,1.51,6.9,6.9,0,0,1,.66,1.83,6.34,6.34,0,0,1-.33,3.8c-.15-.64-.22-1.25-.33-1.84s-.2-1.18-.32-1.76-.26-1.16-.4-1.74Z" fill="#f7a48b"/><path d="M408.41,340.67,401,339.39l-1.27,13,7.13.76s3.83,4.08,12.49,4.84c0,0,19.37,2,19.88-3.56l.25-13.25s-9.94-.51-13.25-1a3.09,3.09,0,0,0-3.31-1s6.88-2.3,8.41-3.57c0,0-.51-4.84-9.43-2C421.92,333.53,407.65,337.35,408.41,340.67Z" fill="#f9b499"/><path d="M417.59,341.43a8.53,8.53,0,0,1,2.91-2,8.15,8.15,0,0,1,3.46-.78,17.08,17.08,0,0,1-3.06,1.69A15.33,15.33,0,0,1,417.59,341.43Z" fill="#f7a48b"/><path d="M424,353.66a33.13,33.13,0,0,1,6.1-.62,32.42,32.42,0,0,1,6.13.37,32.39,32.39,0,0,1-6.11.62A33.11,33.11,0,0,1,424,353.66Z" fill="#f7a48b"/><path d="M426,349.33a11.34,11.34,0,0,1,6.62.51,11.34,11.34,0,0,1-6.62-.51Z" fill="#f7a48b"/><path d="M426,345.25a3.43,3.43,0,0,1,1.82-.32,3.56,3.56,0,0,1,1.74.58,2.91,2.91,0,0,1-1.82.42A3,3,0,0,1,426,345.25Z" fill="#f7a48b"/><path d="M433.9,346.27s-9.87-12.69-19.23-33.33a16.06,16.06,0,0,1-1.32-8.57c.37-3,.89-5.44,4.69-5.64a10.13,10.13,0,0,1,7.79,3.13c2.15,2.22,4.86,6.12,7.05,12.81,0,0,5.6-10.44,14.52,1,0,0,9.69,11.47,2.55,20.39C450,336.08,442.82,344,433.9,346.27Z" fill="#c68662"/><path d="M571.27,605.86a16.48,16.48,0,0,1-8.06-2.09l-126.36-70.4a8.27,8.27,0,0,1-.8-14L446.52,512,805.59,445l8,6.16a7.11,7.11,0,0,1-.66,11.73L579.82,603.49A16.57,16.57,0,0,1,571.27,605.86ZM446.81,512.93l-10.18,7.31a7.27,7.27,0,0,0,.7,12.26l126.36,70.4a15.58,15.58,0,0,0,15.61-.27L812.46,462.06A6.11,6.11,0,0,0,813,452l-7.69-5.89Z" fill="#c68662"/><path d="M805.8,442.69l.47,12.72a4.65,4.65,0,0,1-2.21,4.12L579.53,596.47a13.12,13.12,0,0,1-13.08.33L440.87,528.49a3.17,3.17,0,0,1-1.64-2.6l-.57-10.35Z" fill="#2f2e41"/><path d="M805.84,443.34a6.66,6.66,0,0,1-3.34,5.85L578.11,583.83a14.62,14.62,0,0,1-14.56.27L438.66,515.54s-2.27-6.19,2.94-9.73h0L673.73,366.62l129.76,72.74A4.62,4.62,0,0,1,805.84,443.34Z" fill="#c68662"/><path d="M563.07,581.46,441.74,514.15a4.81,4.81,0,0,1-.14-8.34L673.73,366.62l129.76,72.74a3.54,3.54,0,0,1,.1,6.11l-225,135.71A15.47,15.47,0,0,1,563.07,581.46Z" fill="#fff" opacity="0.64"/><polygon points="549.14 454.85 558.61 361.26 568.8 351.07 595.75 362.72 591.74 424.63 582.27 462.86 586.28 473.79 572.08 476.33 549.14 454.85" fill="#e6e7e8"/><path d="M542.94,455.26s-19.43,53.14-6,64.57c0,0,19.43,26.57,70.29,11.71,0,0,24.28-6.28,22.28-26.85,0,0-2.57-24.86-7.43-37.43l-46.28,1.43s-18-5.43-23.43-11.72C552.37,457,545.8,447,542.94,455.26Z" fill="#2f2e41"/><polygon points="761.48 471.54 762.02 236.41 629.96 161.78 629.42 396.38 761.48 471.54" fill="#e6e7e8"/><path d="M762,472.4,628.92,396.68v-.3l.54-235.45.74.42,132.32,74.76v.3ZM629.92,396.09,761,470.68l.53-234L630.46,162.64Z" fill="#c68662"/><path d="M553.51,347s-11.43-44.28,10.29-68.57c0,0,12.28-17.14,34.28-1.71,0,0,11.72-3.15,20.86,8.57,0,0,12.29,11.71,18,66.86,0,0,2.29,16.85-6.28,29.71,0,0-1.15-25.43-14.58-31.71,0,0-12.28-9.43-17.71-10.86,0,0-31.43-8.29-36.57.57C561.8,339.83,557.23,345.26,553.51,347Z" fill="#2f2e41"/><path d="M598.37,323v16.29l4.86,2s-12.29,16.57-16.57,24.57a25.87,25.87,0,0,1-16-11.14l7.71-10.86.29-9.43Z" fill="#f9b499"/><path d="M603.23,341.26l16,10.86s3.14,2,4,4.28c0,0-13.15,72.57-4.29,97.43l3.14,13.43s-21.71,10.57-46.28,5.43c0,0,3.14-38.86.86-53.15,0,0-7.72-30.28,10-53.71C586.66,365.83,596.08,350.4,603.23,341.26Z" fill="#c68662"/><path d="M550.08,463l-9.42-7.14s16.57-39.43,12.57-63.71c0,0-3.72-36,8.57-52.29,0,0,1.43-4.29,12-4a11.29,11.29,0,0,0,5.14,2.29l-.57,5.71-7.71,10.86s-15.15,20-10.86,45.14c0,0,.57,28-5.43,50Z" fill="#c68662"/><path d="M578.94,424.4s8.29-12.28,13.72-10.86c0,0,16.28,11.15,17.42-6.28,0,0-1.42-19.43-3.42-26.29,0,0-3.72-26,15.42-26.57,0,0,13.43,14.57,8.86,61.72,0,0-1.14,35.42-28.86,23.71A114.7,114.7,0,0,1,578.94,424.4Z" fill="#c68662"/><path d="M578.94,424.4s8.29-12.28,13.72-10.86c0,0,16.28,11.15,17.42-6.28,0,0-1.42-19.43-3.42-26.29,0,0-3.72-26,15.42-26.57,0,0,13.43,14.57,8.86,61.72,0,0-1.14,35.42-28.86,23.71A114.7,114.7,0,0,1,578.94,424.4Z" opacity="0.2"/><path d="M580.08,422.12s-22.28-12.86-15.14-36.86c0,0-1.71-6.86,2.29-5.14,0,0-.29-4.86,3.14-3.15,0,0,2-1.43,3.71,3.43l4.29,14s.57-8,3.43-1.43c0,0,2.57,5.72,2,16l5.71,4.86S586.94,414.69,580.08,422.12Z" fill="#f9b499"/><path d="M568.08,396.4a23,23,0,0,1-2.39-5.33,21.25,21.25,0,0,1-.68-2.86,8.35,8.35,0,0,1-.07-2.95c.23,1,.53,1.86.83,2.77l.87,2.74A43.38,43.38,0,0,1,568.08,396.4Z" fill="#f7a48b"/><path d="M567.23,380.12a75.23,75.23,0,0,1,2.25,7.22c.64,2.43,1.27,4.84,1.75,7.35a32.49,32.49,0,0,1-2.71-7.1A37.67,37.67,0,0,1,567.23,380.12Z" fill="#f7a48b"/><path d="M570.37,377c.8,2.79,1.43,5.58,2.14,8.35.35,1.38.71,2.76,1.11,4.13s.81,2.73,1.32,4.09a23.72,23.72,0,0,1-3.4-8A37.11,37.11,0,0,1,570.37,377Z" fill="#f7a48b"/><path d="M578.37,394.4A19.48,19.48,0,0,1,579.8,398c.18.6.37,1.19.53,1.79a14,14,0,0,0,.61,1.79,3.79,3.79,0,0,1-1.33-1.48,10.43,10.43,0,0,1-.76-1.8A10.06,10.06,0,0,1,578.37,394.4Z" fill="#f7a48b"/><path d="M477,370.74a3.25,3.25,0,0,0,1.79,4.33s44.34,19.88,74.15,3.57c0,0-.81-26.39,8.9-38.81,0,0-20.62,28.87-76.17,15.87,0,0-6.63-4.08-6.12,3.31C479.51,359,479,366.4,477,370.74Z" fill="#c68662"/><path d="M325.08,271.61s30.07,48.16,53.26,56.57l18.35,6.88s5.35.51,4.84,5.86l-2.29,14.53s-3.06,2.29-12.49.25c0,0-33.38-7.39-61.67-30.07C325.08,325.63,332,288.94,325.08,271.61Z" fill="#c68662"/><path d="M325.08,271.61s30.07,48.16,53.26,56.57l18.35,6.88s5.35.51,4.84,5.86l-2.29,14.53s-3.06,2.29-12.49.25c0,0-33.38-7.39-61.67-30.07C325.08,325.63,332,288.94,325.08,271.61Z" opacity="0.2"/><path d="M235.14,279.49s4.28-8,35.31-18.73c0,0,39.59-13.37,48.69-1.6,0,0,5.47,7.78,5.94,12.45,0,0,7.55,16.7,0,54,0,0,.48,4.15-2.73,34.11,0,0,4.28,34.77-4.28,43.87,0,0-10.51,18.52-57.67,17.31A37.2,37.2,0,0,1,245,417.36c-4.64-2.26-9.51-5.9-11.5-11.61Z" fill="#c68662"/><path d="M253.05,415.4l2.49,4.14s2.48,20.69,19.87,20.69c0,0,2.53,2.24,7.89.53,0,0,4.07.21,5.14-1.93,0,0,6.43-.43-2.36-6.43,0,0,3.86-.86-1.92-7.71,0,0-7.72-12.65-18.65-14.79l-2.78-3.64Z" fill="#f9b499"/><path d="M268.51,433.26a21.37,21.37,0,0,1,3.81,3.14,21.77,21.77,0,0,1,3.09,3.83,21,21,0,0,1-3.8-3.13A21.81,21.81,0,0,1,268.51,433.26Z" fill="#f7a48b"/><path d="M272.8,430.9c1.74,1.74,3.34,3.54,5,5.27.82.88,1.69,1.71,2.57,2.51a12.19,12.19,0,0,0,2.92,2.08,7.34,7.34,0,0,1-3.41-1.47,19.6,19.6,0,0,1-2.8-2.43,27.87,27.87,0,0,1-2.36-2.83A20.89,20.89,0,0,1,272.8,430.9Z" fill="#f7a48b"/><path d="M275.8,427.26c2,2.1,3.94,4.26,5.95,6.3,1,1,2,2,3.11,2.94a12.55,12.55,0,0,0,3.58,2.33,8.59,8.59,0,0,1-4.05-1.71,22.39,22.39,0,0,1-3.35-2.86A32.49,32.49,0,0,1,275.8,427.26Z" fill="#f7a48b"/><path d="M279.44,424.47c1.16,1.37,2.14,2.79,3.19,4.14.51.68,1,1.35,1.6,2a14.36,14.36,0,0,0,1.85,1.8,5.54,5.54,0,0,1-2.39-1.24,11.38,11.38,0,0,1-1.86-1.94,16.15,16.15,0,0,1-1.42-2.26A11.92,11.92,0,0,1,279.44,424.47Z" fill="#f7a48b"/><path d="M270.75,246.83l-1.61,19.06s-3,13.16,11.27,13.42c0,0,11.28,3,12.89-10.73Z" fill="#f9b499"/><path d="M206.83,211.68l-46.35,27.48a12.82,12.82,0,0,0-4.49,4.5l-14.06,23.76v-17.6l-11.06,5.53a1.68,1.68,0,0,1-2.43-1.5l-.33-59.5a9.46,9.46,0,0,1,4.81-8.29L205.73,145a2.68,2.68,0,0,1,4,2.32l.33,58.69A6.57,6.57,0,0,1,206.83,211.68Z" fill="#fff"/><path d="M141.43,269.24V250.63L131.1,255.8a2.17,2.17,0,0,1-2.12-.1,2.13,2.13,0,0,1-1-1.84l-.33-59.51a10,10,0,0,1,5.06-8.72l72.81-41.08a3.16,3.16,0,0,1,3.16,0,3.12,3.12,0,0,1,1.58,2.73l.33,58.69a7.08,7.08,0,0,1-3.47,6.12l-46.34,27.48a12.27,12.27,0,0,0-4.32,4.33Zm1-20.23v16.58l13.13-22.18a13.33,13.33,0,0,1,4.67-4.68l46.34-27.48a6.09,6.09,0,0,0,3-5.26l-.33-58.69a2.17,2.17,0,0,0-3.24-1.88L133.17,186.5a9,9,0,0,0-4.56,7.85l.33,59.5a1.18,1.18,0,0,0,1.71,1.05Z" fill="#2f2e41"/><rect x="136.4" y="182.3" width="62.37" height="1" transform="translate(-68.28 106.2) rotate(-29.49)" fill="#c68662"/><rect x="138.47" y="198.59" width="38.37" height="1" transform="translate(-76.05 99.73) rotate(-28.59)" fill="#c68662"/><rect x="136.33" y="203.58" width="64.64" height="1" transform="translate(-80.16 113.6) rotate(-30.45)" fill="#c68662"/><path d="M146.16,227.33A13,13,0,0,1,148,224.2a2.46,2.46,0,0,1,4.17,2.4c-.7,2-2.41,5.32-6.27,10.59,0,0-9.43-3.65-4.28-9.43C141.66,227.76,144.23,225.62,146.16,227.33Z" fill="#c68662"/><rect x="158.11" y="277.73" width="62.37" height="1" transform="translate(-112.45 129.26) rotate(-29.49)" fill="#c68662"/><rect x="160.19" y="294.02" width="38.37" height="1" transform="translate(-119.08 121.76) rotate(-28.59)" fill="#c68662"/><rect x="158.05" y="299.01" width="64.65" height="1" transform="translate(-125.52 137.76) rotate(-30.45)" fill="#c68662"/><path d="M213.3,297a12.83,12.83,0,0,1,1.88-3.12,2.46,2.46,0,0,1,4.18,2.4c-.71,2-2.42,5.31-6.28,10.58,0,0-9.42-3.64-4.28-9.43C208.8,297.47,211.37,295.33,213.3,297Z" fill="#c68662"/><path d="M661,283.8l.27-10.83a8.84,8.84,0,0,0-4.16-7.73l-7.64-4.78a8.18,8.18,0,0,1-3.85-7.13L647,196.06a2.83,2.83,0,0,1,4.25-2.38l73.4,42.6a7.8,7.8,0,0,1,3.87,6.73v58.7a2.06,2.06,0,0,1-3.08,1.8L679.1,277.38a6.92,6.92,0,0,0-6.81,0Z" fill="#fff"/><path d="M726.45,304.28a2.55,2.55,0,0,1-1.26-.33l-46.33-26.13a6.44,6.44,0,0,0-6.32,0l-12.06,6.84.29-11.72a8.41,8.41,0,0,0-3.92-7.29l-7.65-4.78a8.7,8.7,0,0,1-4.08-7.56L646.49,196a3.33,3.33,0,0,1,5-2.8l73.4,42.61A8.31,8.31,0,0,1,729,243v58.7a2.57,2.57,0,0,1-1.27,2.22A2.63,2.63,0,0,1,726.45,304.28ZM675.7,276a7.39,7.39,0,0,1,3.65.95l46.33,26.12a1.51,1.51,0,0,0,1.55,0,1.54,1.54,0,0,0,.78-1.35V243a7.29,7.29,0,0,0-3.62-6.29L651,194.11a2.33,2.33,0,0,0-3.5,2l-1.37,57.27a7.73,7.73,0,0,0,3.61,6.7l7.65,4.78a9.39,9.39,0,0,1,4.39,8.16l-.25,9.95L672,277A7.44,7.44,0,0,1,675.7,276Z" fill="#2f2e41"/><path d="M664.6,306.88,665,366a5.63,5.63,0,0,0,2.77,4.82l48.21,28.64a8.1,8.1,0,0,1,2.92,3l13.63,23.93-.35-15.83a1.08,1.08,0,0,1,1.67-.93l7.28,4.71a3,3,0,0,0,4.57-2.45l.65-56.58a11.42,11.42,0,0,0-5.79-10.08l-71.76-40.76A2.78,2.78,0,0,0,664.6,306.88Z" fill="#fff"/><path d="M733,428.33l-14.6-25.66a7.71,7.71,0,0,0-2.74-2.79l-48.22-28.64a6.2,6.2,0,0,1-3-5.25l-.35-59.11A3.28,3.28,0,0,1,669,304l71.76,40.75a12,12,0,0,1,6,10.52l-.65,56.59a3.46,3.46,0,0,1-5.34,2.86L733.52,410a.57.57,0,0,0-.59,0,.55.55,0,0,0-.3.52ZM667.38,304.58a2.28,2.28,0,0,0-2.28,2.29l.35,59.11a5.19,5.19,0,0,0,2.52,4.4L716.19,399a8.62,8.62,0,0,1,3.1,3.16l12.65,22.22-.31-13.86a1.58,1.58,0,0,1,2.44-1.36l7.28,4.71a2.42,2.42,0,0,0,2.5.11,2.46,2.46,0,0,0,1.3-2.15l.65-56.58a10.93,10.93,0,0,0-5.54-9.64l-71.75-40.75A2.3,2.3,0,0,0,667.38,304.58Z" fill="#2f2e41"/><rect x="685.72" y="197.21" width="1" height="64.38" transform="translate(148.06 713.04) rotate(-60.43)" fill="#c68662"/><rect x="674.99" y="214.73" width="1" height="39.27" transform="translate(148.24 717.29) rotate(-61.62)" fill="#c68662"/><rect x="686.71" y="219.08" width="1" height="65.12" transform="translate(125.64 720.91) rotate(-60)" fill="#c68662"/><path d="M664.18,249.25s3.17-3.17,5.16,1.59c0,0,2.67,3.92-4.61,8.42,0,0-9-10.72-5.79-15C658.94,244.26,662.34,242.25,664.18,249.25Z" fill="#c68662"/><path d="M727.85,389.77s3.17-3.18,5.16,1.59c0,0,2.67,3.91-4.61,8.41,0,0-9-10.71-5.79-15C722.61,384.77,726,382.76,727.85,389.77Z" fill="#c68662"/><rect x="706.67" y="310.23" width="1" height="63.89" transform="translate(63.41 792.46) rotate(-60.79)" fill="#c68662"/><rect x="716.11" y="338.33" width="1" height="41.07" transform="translate(57.25 814.44) rotate(-61.24)" fill="#c68662"/><rect x="705.57" y="331.34" width="1" height="64.7" transform="translate(40.35 796.86) rotate(-60.3)" fill="#c68662"/><path d="M378.37,115S367.49,111.1,362,101.63a20.18,20.18,0,0,1,.24-20.18c3.8-6.59,10.66-15.33,19.28-12.76l4.86,2.57s5.71-17.72,18-18.57c1.14-.29,6.86.57,10.86,5.71Z" fill="#c68662"/><path d="M378.37,115S367.49,111.1,362,101.63a20.18,20.18,0,0,1,.24-20.18c3.8-6.59,10.66-15.33,19.28-12.76l4.86,2.57s5.71-17.72,18-18.57c1.14-.29,6.86.57,10.86,5.71Z" opacity="0.2"/><path d="M502.35,160.52s-4.77-30.52-27.83-32.09c0,0-11.68,1.73-8,20.46a49.12,49.12,0,0,0,6.14,15.69l31.29,52.3s28.42-5.71,34.23-27.38a27.88,27.88,0,0,0-2.5-20.06c-3.2-6.15-8.93-14.44-17.8-18.35C517.87,151.09,506.63,145.38,502.35,160.52Z" fill="#c68662"/><rect x="436.37" y="213.9" width="82.87" height="1" transform="translate(256.89 689.22) rotate(-89.22)" fill="#c68662"/><rect x="500.65" y="236.47" width="74.29" height="1" transform="translate(292.45 771) rotate(-89.1)" fill="#c68662"/><rect x="476.73" y="262.69" width="1" height="14.86" fill="#c68662"/><rect x="476.73" y="284.4" width="1" height="8" fill="#c68662"/><rect x="321.6" y="158.95" width="97.53" height="1" transform="translate(206.59 527.93) rotate(-89.33)" fill="#c68662"/><rect x="369.3" y="216.28" width="1" height="17.49" fill="#c68662"/><rect x="369.3" y="241.84" width="1" height="9.42" fill="#c68662"/><rect x="537.87" y="286.12" width="1" height="14.86" fill="#c68662"/><rect x="537.87" y="307.83" width="1" height="8" fill="#c68662"/><rect x="375.12" y="135.71" width="55.63" height="1" transform="translate(258.5 536.28) rotate(-88.83)" fill="#c68662"/><rect x="403.01" y="173.01" width="1" height="11.12" fill="#c68662"/><rect x="403.01" y="189.27" width="1" height="5.99" fill="#c68662"/><path d="M705.33,197.59l-.93-.35c.37-1,.71-2.07,1-3.12l1,.28C706.07,195.48,705.71,196.55,705.33,197.59Zm2.43-9.08-1-.18c.34-1.89.61-3.88.78-5.9l1,.09C708.38,184.57,708.11,186.58,707.76,188.51Zm1.08-12h-1v-.73c0-1.7-.05-3.46-.15-5.23l1-.06c.1,1.79.15,3.57.15,5.29Zm-1.69-11.92c-.23-1.95-.52-3.94-.86-5.91l1-.18c.35,2,.64,4,.88,6Zm-2-11.78c-.44-1.95-.93-3.9-1.46-5.79l1-.27c.53,1.91,1,3.87,1.48,5.84Zm-3.26-11.47c-.74-1.83-1.54-3.68-2.37-5.48l.91-.42c.83,1.82,1.64,3.68,2.39,5.52Zm-532.8-1.49-1-.33a55.52,55.52,0,0,1,2.46-5.58l.9.44A56.69,56.69,0,0,0,169.05,139.83Zm527.81-9.36c-.91-1.76-1.87-3.53-2.85-5.25l.86-.5c1,1.74,2,3.51,2.88,5.29Zm-522.6-1.4-.87-.49c1-1.7,2-3.44,3.11-5.17l.84.53C176.26,125.66,175.22,127.39,174.26,129.07Zm516.67-9c-1.06-1.67-2.17-3.35-3.3-5l.82-.57c1.14,1.65,2.26,3.33,3.32,5ZM180.66,119l-.82-.57c1.12-1.62,2.32-3.26,3.54-4.87l.8.6C183,115.73,181.78,117.35,180.66,119Zm503.46-8.66c-1.19-1.56-2.44-3.14-3.71-4.68l.77-.64c1.28,1.56,2.54,3.14,3.73,4.72Zm-496.24-.87-.77-.64c1.26-1.53,2.57-3.08,3.9-4.58l.75.66C190.44,106.37,189.13,107.9,187.88,109.43Zm488.63-8.34c-1.31-1.46-2.67-2.93-4.06-4.36l.72-.7c1.4,1.44,2.77,2.92,4.09,4.39Zm-480.72-.64-.73-.69c1.36-1.44,2.78-2.89,4.21-4.3l.7.71C198.55,97.58,197.14,99,195.79,100.45Zm472.43-7.94c-1.41-1.36-2.89-2.73-4.38-4.06l.66-.75c1.51,1.35,3,2.72,4.42,4.09ZM204.29,92l-.68-.74c1.45-1.35,2.95-2.7,4.46-4l.66.75C207.23,89.34,205.73,90.68,204.29,92Zm455-7.49c-1.51-1.26-3.08-2.52-4.66-3.77l.61-.78c1.6,1.24,3.18,2.52,4.69,3.78Zm-446-.39-.64-.77c1.53-1.26,3.11-2.52,4.7-3.75l.61.79C216.39,81.64,214.82,82.9,213.3,84.15Zm436.56-7c-1.6-1.17-3.24-2.33-4.9-3.47l.57-.82c1.66,1.14,3.32,2.31,4.92,3.48Zm-427.11-.34-.59-.81c1.6-1.17,3.25-2.34,4.9-3.48l.57.82C226,74.48,224.35,75.65,222.75,76.82ZM640,70.37c-1.67-1.08-3.38-2.15-5.09-3.18l.52-.86c1.71,1,3.43,2.12,5.11,3.2ZM232.6,70l-.55-.83c1.65-1.08,3.36-2.17,5.07-3.22l.53.85C235.94,67.86,234.24,68.94,232.6,70Zm397.11-5.87c-1.72-1-3.49-2-5.25-2.92l.47-.88c1.77,1,3.55,1.94,5.27,2.93Zm-386.93-.41-.51-.87c1.71-1,3.47-2,5.23-3l.48.87C246.23,61.74,244.48,62.73,242.78,63.73Zm376.36-5.29c-1.75-.9-3.56-1.79-5.37-2.67l.43-.9c1.82.88,3.64,1.78,5.4,2.68Zm-365.89-.5-.46-.89c1.76-.91,3.56-1.83,5.36-2.72l.44.9C256.8,56.11,255,57,253.25,57.94Zm355.09-4.71c-1.82-.83-3.64-1.63-5.47-2.42l.39-.92q2.76,1.19,5.5,2.43ZM264,52.64l-.43-.91c1.79-.84,3.62-1.67,5.47-2.49l.41.92C267.59,51,265.77,51.8,264,52.64Zm333.36-4.15q-2.77-1.12-5.56-2.2l.36-.93q2.79,1.06,5.58,2.21ZM274.94,47.8l-.39-.93c1.83-.76,3.68-1.51,5.57-2.26l.36.93C278.6,46.28,276.76,47,274.94,47.8ZM586.2,44.19c-1.88-.69-3.77-1.36-5.65-2l.32-1q2.83,1,5.67,2ZM286.07,43.4l-.35-.94q2.79-1,5.65-2l.33.94Q288.85,42.37,286.07,43.4Zm288.79-3.13c-1.9-.63-3.81-1.23-5.71-1.82l.3-1q2.87.88,5.73,1.83Zm-277.49-.84-.31-1q2.82-.94,5.71-1.84l.3,1Q300.17,38.49,297.37,39.43Zm266-2.71q-2.89-.86-5.77-1.65l.27-1q2.88.8,5.78,1.65ZM308.8,35.86l-.28-1q2.85-.84,5.78-1.65l.26,1Q311.65,35,308.8,35.86Zm243.05-2.35Q548.92,32.75,546,32l.24-1c1.94.48,3.88,1,5.83,1.49Zm-231.5-.84-.25-1c1.92-.49,3.86-1,5.82-1.45l.24,1C324.2,31.69,322.26,32.18,320.35,32.67Zm219.85-2c-2-.46-3.92-.9-5.85-1.32l.21-1,5.87,1.32ZM332,29.85l-.22-1q2.89-.66,5.87-1.29l.2,1Q334.89,29.2,332,29.85Zm196.49-1.78-5.89-1.17.19-1c2,.37,3.91.77,5.9,1.17Zm-184.77-.69-.19-1c2-.39,3.91-.76,5.9-1.12l.18,1Q346.63,26.81,343.71,27.38Zm173-1.58c-2-.36-4-.7-5.91-1l.16-1q2.93.5,5.93,1ZM355.5,25.23l-.17-1q2.94-.49,5.93-1l.16,1C359.42,24.59,357.45,24.9,355.5,25.23Zm149.35-1.41c-2-.32-4-.61-5.94-.89l.15-1c1.95.28,3.93.57,5.95.89ZM367.34,23.4l-.14-1q3-.42,5.95-.81l.13,1Q370.28,23,367.34,23.4ZM493,22.1c-2-.26-4-.52-5.95-.75l.12-1q2.91.34,6,.75Zm-113.73-.24-.12-1,6-.67.1,1C383.18,21.41,381.19,21.63,379.23,21.86ZM481,20.66c-2.06-.22-4.05-.43-6-.61l.1-1c1.93.19,3.93.39,6,.62Zm-89.9-.06-.09-1q3-.28,6-.53l.08,1Zm11.95-1-.07-1,6-.4.07,1C407.06,19.33,405.06,19.47,403.09,19.61Zm66-.11q-3.16-.27-6-.48l.07-1q2.83.21,6,.48Zm-54-.63-.05-1,6-.28,0,1Zm42-.25c-2.26-.14-4.27-.24-6-.32l0-1c1.75.08,3.77.18,6,.32ZM427,18.37l0-1c2-.06,4-.12,6-.16l0,1C431,18.25,429,18.31,427,18.37Zm12-.27v-1l4.32-.05,1.74,0,0,1-1.72,0Z" fill="#c68662"/><path d="M169.2,139.88l-.49-.87,5.22-3,.49.87Zm.26-5.73-1-.07.42-6,1,.07Zm10.18-.18-.49-.87,5.22-3,.49.87Zm10.44-5.92-.49-.87,3.49-2,.49.87Zm-19.78-5.87-1-.07.42-6,1,.07Zm.83-12-1-.06.41-6,1,.07Z" fill="#c68662"/><polygon points="642.26 65.58 640.29 75.92 636.85 74.93 634.88 70.01 642.26 65.58" fill="#c68662"/><polygon points="642.26 65.58 640.29 75.92 636.85 74.93 634.88 70.01 642.26 65.58" opacity="0.2"/><path d="M436.72,665.84h-.32v-1h.32c1.88,0,3.77,0,5.67-.05l0,1C440.5,665.82,438.6,665.84,436.72,665.84Zm-6.33-.06q-3-.06-6-.16l0-1q3,.11,6,.16Zm18-.14,0-1c2-.06,4-.15,6-.25l.05,1C452.4,665.49,450.4,665.58,448.41,665.64Zm-30-.29c-2-.1-4-.23-6-.37l.07-1c2,.14,4,.27,6,.37Zm42-.31-.07-1q3-.21,6-.46l.09,1Q463.4,664.84,460.42,665Zm-54-.53c-2-.18-4-.38-6-.58l.11-1c2,.21,4,.4,6,.58Zm66-.49-.1-1c2-.2,4-.42,5.95-.65l.12,1Q475.36,663.72,472.39,664Zm-77.95-.78c-2-.25-4-.51-5.95-.79l.14-1q2.92.42,5.94.79Zm89.88-.64-.13-1q2.94-.4,5.93-.85l.15,1C488.27,662.05,486.29,662.33,484.32,662.6Zm-101.78-1.05q-3-.48-5.92-1l.17-1c1.95.34,3.92.68,5.91,1Zm113.66-.76-.17-1c2-.33,3.92-.68,5.9-1l.18,1Q499.14,660.29,496.2,660.79Zm-125.49-1.35q-3-.59-5.88-1.21l.21-1c1.92.42,3.88.82,5.86,1.21Zm137.3-.86-.2-1c1.95-.39,3.9-.81,5.86-1.24l.22,1C511.92,657.77,510,658.19,508,658.58Zm-149-1.67c-2-.46-3.93-.94-5.84-1.42l.25-1c1.9.48,3.85,1,5.82,1.42ZM519.74,656l-.23-1q2.91-.69,5.82-1.43l.25,1C523.63,655.07,521.68,655.54,519.74,656Zm-172.43-2q-3-.81-5.78-1.64l.28-1q2.82.82,5.76,1.63Zm184.08-.91-.26-1c1.92-.52,3.84-1.05,5.77-1.61l.28,1Q534.27,652.27,531.39,653.05Zm-195.62-2.48c-1.95-.62-3.86-1.23-5.71-1.86l.31-.94q2.78.91,5.7,1.85Zm207.17-.84-.29-1,.45-.13s2-.54,5.3-1.65l.31,1c-3.35,1.12-5.31,1.65-5.33,1.66Zm-218.57-3q-2.91-1.05-5.64-2.08l.36-.94c1.8.69,3.68,1.38,5.62,2.08Zm230-.83-.35-.94c1.83-.68,3.71-1.41,5.58-2.18l.38.93C558.13,644.5,556.24,645.24,554.4,645.92Zm-241.27-3.45c-1.94-.78-3.8-1.55-5.55-2.31l.39-.92q2.63,1.13,5.54,2.31Zm252.43-1.09-.41-.92c1.82-.79,3.65-1.63,5.46-2.49l.42.91C569.22,639.73,567.38,640.58,565.56,641.38Zm-263.48-3.66c-1.84-.84-3.68-1.7-5.44-2.57l.44-.9c1.76.86,3.58,1.73,5.41,2.56Zm274.36-1.5-.45-.89c1.78-.9,3.57-1.84,5.3-2.79l.48.88C580,634.37,578.24,635.31,576.44,636.22Zm-285.17-3.79c-2.49-1.31-4.25-2.32-5.28-2.93l.5-.86c1,.61,2.77,1.6,5.24,2.9Zm295.75-2-.5-.86c1.72-1,3.45-2,5.13-3.09l.53.85C590.48,628.43,588.75,629.47,587,630.47Zm-306.2-4.05c-1.72-1.06-3.43-2.14-5.08-3.22l.55-.83c1.64,1.07,3.34,2.14,5,3.19Zm316.43-2.3-.56-.83c1.67-1.11,3.33-2.25,4.94-3.39l.58.82C600.6,621.86,598.93,623,597.25,624.12Zm-326.49-4.28c-1.66-1.15-3.3-2.33-4.88-3.52l.6-.8c1.57,1.18,3.2,2.36,4.85,3.5Zm336.3-2.69-.6-.79c1.59-1.22,3.18-2.46,4.7-3.7l.63.77C610.26,614.68,608.67,615.93,607.06,617.15Zm-345.93-4.51c-1.58-1.27-3.13-2.57-4.62-3.86l.66-.75c1.48,1.28,3,2.57,4.58,3.83Zm355.27-3.09-.66-.75c1.51-1.32,3-2.67,4.43-4l.68.73C619.41,606.86,617.91,608.22,616.4,609.55Zm-364.35-4.81c-1.47-1.39-2.91-2.82-4.28-4.23l.72-.69c1.35,1.4,2.78,2.81,4.25,4.19Zm373.11-3.44-.72-.7c1.4-1.43,2.79-2.89,4.11-4.35l.74.68C628,598.4,626.57,599.87,625.16,601.3Zm-381.47-5.21c-1.34-1.52-2.64-3.08-3.86-4.62l.78-.63c1.22,1.54,2.5,3.08,3.83,4.59Zm389.56-3.7-.77-.64c1.28-1.52,2.54-3.09,3.74-4.67l.8.61C635.8,589.28,634.53,590.86,633.25,592.39Zm-397-5.75c-1.16-1.66-2.28-3.35-3.32-5l.85-.52c1,1.66,2.14,3.33,3.29,5Zm404.35-3.81-.82-.57c1.15-1.64,2.26-3.31,3.31-5l.85.53C642.85,579.5,641.73,581.18,640.57,582.83Zm-410.68-6.44c-.95-1.78-1.84-3.6-2.66-5.41l.91-.41c.81,1.78,1.69,3.58,2.64,5.35ZM647,572.66l-.86-.49c.76-1.34,1.5-2.69,2.2-4l.89.46C648.53,570,647.78,571.32,647,572.66ZM225,565.4c-.7-1.89-1.33-3.82-1.88-5.74l1-.27c.54,1.89,1.17,3.79,1.85,5.66Zm-3.34-11.6c-.4-2-.74-4-1-5.95l1-.12c.25,1.95.58,3.93,1,5.87Zm-1.54-12c-.06-1.29-.09-2.59-.09-3.87,0-.73,0-1.46,0-2.17l1,0c0,.7,0,1.42,0,2.14,0,1.27,0,2.55.09,3.82Zm1.34-12-1-.1c.22-2,.52-4,.9-6l1,.19C221.93,525.92,221.63,527.9,221.41,529.88Zm2.27-11.68-1-.28a41.88,41.88,0,0,1,2-5.73l.91.42A41.71,41.71,0,0,0,223.68,518.2Z" fill="#2f2e41"/><path d="M651.84,589.69l-1-5.91,1-.17,1,5.92ZM626.39,583l-.53-.85.24-.14.53.85Zm5.32-3.32-.53-.85,5.09-3.18.53.85Zm18.16-1.77-1-5.92,1-.17,1,5.92Zm-8-4.59-.53-.85,5.09-3.18.53.85Z" fill="#2f2e41"/><path d="M802.79,447.72l-34.7-20.65a3.36,3.36,0,0,0-3.46.05l-2.54,1.56-.52-.86,2.53-1.56a4.4,4.4,0,0,1,4.5-.05l34.7,20.65Z" fill="#c68662"/><path d="M578.37,343.83l.57-5.71s11.86-2,17.22-8.43C596.16,329.69,592.3,344,578.37,343.83Z" fill="#f7a48b"/><ellipse cx="581.66" cy="314.12" rx="17.86" ry="24.29" fill="#f9b499"/><path d="M562.66,307.26s3.71-4,14-2.29c0,0,15.71,2.57,19.71.29l-.57,13.43,11.14-4L606.08,283H575.51S556.66,295.54,562.66,307.26Z" fill="#2f2e41"/><ellipse cx="600.23" cy="318.69" rx="4.43" ry="4.86" fill="#f9b499"/><path d="M230.29,284.17s10.76-15.32,21.52-.42c0,0,10.35,16.15-4.14,46.37,0,0-16.14,23.18-.41,43.05L263,395.94s5,6.21-1.24,11.59l-8.7,7.87s-1.24,4.55-12-4.14c0,0-32.71-29.81-30.64-63.76C210.41,347.5,213.31,314.39,230.29,284.17Z" fill="#c68662"/><path d="M230.29,284.17s10.76-15.32,21.52-.42c0,0,10.35,16.15-4.14,46.37,0,0-16.14,23.18-.41,43.05L263,395.94s5,6.21-1.24,11.59l-8.7,7.87s-1.24,4.55-12-4.14c0,0-32.71-29.81-30.64-63.76C210.41,347.5,213.31,314.39,230.29,284.17Z" opacity="0.2"/><path d="M293.13,266.27a14,14,0,0,1-2.16,9.15s-17.39-8.76-17.14-20.19Z" fill="#f7a48b"/><ellipse cx="289.54" cy="247.37" rx="18.52" ry="21.74" fill="#f9b499"/><path d="M270.21,253.81s-8.86-.27-10.74-28.45c0,0-.8-14.23,11.55-16.64,0,0,9.93-12.08,27.64-3,0,0,14.77,3.49,11.55,37.85a18,18,0,0,1-6.45-3.49l-.26,3s-22.28-4-27.65-8.06v4.83L270.66,250Z" fill="#2f2e41"/><ellipse cx="271.42" cy="243.88" rx="5.5" ry="5.91" fill="#f9b499"/><polygon points="633.4 79.86 597.46 47.86 650.63 54.26 633.4 79.86" fill="#c68662"/><line x1="638.82" y1="63.12" x2="597.46" y2="47.86" fill="none" stroke="#000" stroke-miterlimit="10" opacity="0.2"/><path d="M303.51,636.88c-6,1.35-16.1.66-16.1.66s-2-9,5-10.53c0,0,5.82-1.38,6.92,3.88,0,0,6.78-.21,6.54,3.45A2.89,2.89,0,0,1,303.51,636.88Z" fill="#c68662"/><path d="M395,80.74s3.44-22.36,20.07-23.51c0,0,8.37,1.25,5.81,14.84a36.52,36.52,0,0,1-4.51,11.73L393.85,122s-20.5-4.18-24.69-20a20.65,20.65,0,0,1,1.8-14.7c2.31-4.5,6.44-10.58,12.84-13.44C383.8,73.83,391.9,69.65,395,80.74Z" fill="#c68662"/></svg>