<svg id="f7b38362-dd04-4f00-ac83-173cc0c743bf" data-name="Layer 1" xmlns="http://www.w3.org/2000/svg" width="865.76" height="682.89" viewBox="0 0 865.76 682.89"><g id="b4588be0-9cc7-4541-aa9b-e321298de875" data-name="freepik--background-simple--inject-6"><path d="M694.24,123.79c-49.48-51.56-126.81-79-200-85.76a631.46,631.46,0,0,0-64.52-2.51c-212.41,2.08-274.61,86.08-261,126.53s51.91,65.34-3.35,121.34-117.55,140-85.9,224S242.2,656.71,432,646.33s313-11.4,352.51-89.15S737.64,426,725.47,359.38c-7.52-41.33,11.81-83,13.21-124.21C740.21,190.59,722.69,153.44,694.24,123.79Z" fill="#b16c43"/><path d="M694.24,123.79c-49.48-51.56-126.81-79-200-85.76a631.46,631.46,0,0,0-64.52-2.51c-212.41,2.08-274.61,86.08-261,126.53s51.91,65.34-3.35,121.34-117.55,140-85.9,224S242.2,656.71,432,646.33s313-11.4,352.51-89.15S737.64,426,725.47,359.38c-7.52-41.33,11.81-83,13.21-124.21C740.21,190.59,722.69,153.44,694.24,123.79Z" fill="#fff" opacity="0.7" style="isolation:isolate"/></g><path d="M679.75,620.93c.4,5.34-3.24,6.9-6.55,7.24h-.1a11.1,11.1,0,0,1-6.84-1.57c-6.26-3.84-8.83.53-8.83.53l-1.88,1.76a11.24,11.24,0,0,1-5.09,2.8,9.43,9.43,0,0,1-3.55.15c-8.69-1.25-6.66-12.75-6.66-12.75l35.3-3.26C680.06,617.73,679.75,620.93,679.75,620.93Z" fill="#e6e7e8"/><path d="M634.9,559.51s.56,6.75-.91,11.54a20.68,20.68,0,0,0-1.07,6.18c0,.94.05,1.93.15,2.83l1.93,4.22,22.75-4.87,3.58-14.81A54.32,54.32,0,0,1,634.9,559.51Z" fill="#f9b499"/><path d="M549.3,458.54s1.3,8.54,14.44,9.06a53.12,53.12,0,0,1,10.1,1.91s12.5,3.81,13.41-5.93l-16.83-9.05Z" fill="#b16c43"/><path d="M627.08,363.49s5.53,49.75,4,82.12a180.55,180.55,0,0,0,2.28,40.75s-.56,45.7-5.8,66.31a2.5,2.5,0,0,0,.81,2.57c3.8,3.19,16.62,12.07,38.36,8.77a4.86,4.86,0,0,0,4.12-4.58c.75-17.88,3.7-92.38,1.36-110.77,0,0-2.42-11.05.89-39.23,0,0,9.77-53.76,5.58-71.44l-28.32-18.5Z" fill="#2f2e41"/><path d="M627.08,363.49s5.53,49.75,4,82.12a180.55,180.55,0,0,0,2.28,40.75s-.56,45.7-5.8,66.31a2.5,2.5,0,0,0,.81,2.57c3.8,3.19,16.62,12.07,38.36,8.77a4.86,4.86,0,0,0,4.12-4.58c.75-17.88,3.7-92.38,1.36-110.77,0,0-2.42-11.05.89-39.23,0,0,9.77-53.76,5.58-71.44l-28.32-18.5Z" opacity="0.2"/><path d="M563.14,236.56s-.69,14.5,24.89,32c0,0,3.46,4.59,4.08,4.74s14.17-20.24,14.17-20.24l-13.72-19.78A23.65,23.65,0,0,1,578,224.58s-2.36-2.32-4.17-1.23C573.84,223.35,574.05,237,563.14,236.56Z" fill="#b16c43"/><path d="M563.14,236.56s-.69,14.5,24.89,32c0,0,3.46,4.59,4.08,4.74s14.17-20.24,14.17-20.24l-13.72-19.78A23.65,23.65,0,0,1,578,224.58s-2.36-2.32-4.17-1.23C573.84,223.35,574.05,237,563.14,236.56Z" opacity="0.2"/><path d="M563.14,236.56s-.31-3.09-6.54-2.93c0,0-17-.12-13.7-10.57,0,0-3.12-3.14.77-5.47,0,0-2.18-1.25-.46-4.05,0,0-16.36-1.4-13.86-5.14,0,0,5.76-4.83,27.72,3.11,0,0-.16-2.28-3.43-4.57,0,0-5.06-5.66-2.5-8.19a1.38,1.38,0,0,1,1.72-.12l8.82,5.85a19.54,19.54,0,0,1,8.53,12.09c.1.48.19,1,.25,1.48,0,0,1.15,4,3.38,5.3C573.84,223.35,574.36,236.84,563.14,236.56Z" fill="#f9b499"/><path d="M544,229.56s10.86-.29,9.15-4.65c0,0,6.69.31,3.89-5.14,0,0,3.27-2.65-.16-5.3,0,0-9.19-3.74-13.7-.93,0,0-2,2.8.46,4.05,0,0-4,1.75-.77,5.47A6.54,6.54,0,0,0,544,229.56Z" fill="none" stroke="#f7a48b" stroke-miterlimit="10"/><path d="M543.67,217.59s9.19-.16,13.4,2.18" fill="none" stroke="#f7a48b" stroke-miterlimit="10"/><path d="M542.9,223.06s7-.18,10.28,1.85" fill="none" stroke="#f7a48b" stroke-miterlimit="10"/><path d="M568.4,187.09s-4.52,5,0,5.87c0,0-2,6.8,5.44,5.43,0,0-4.31,3.74,4.49,3.78h10.09s.72-12.6,6-18.35c0,0-10-6.88-19.06-4.63,0,0-27.89,4.06-25.34,8.58C550.05,187.77,547.18,191.6,568.4,187.09Z" fill="#f9b499"/><path d="M259.34,616.24c-.78,10.59-11.81,11.61-11.81,11.61-11.64,2.33-17.59-8-17.59-8a8.61,8.61,0,0,1-.46-3.62c.2-9.16,6.43-28.93,6.43-28.93,9.81-9.32,18.72-3.38,18.72-3.38,4.51,3.89,4.51,27.91,4.51,27.91A18.2,18.2,0,0,1,259.34,616.24Z" fill="#b16c43"/><path d="M244.47,633.8c-22.43.27-15-17.56-15-17.56a8.61,8.61,0,0,0,.46,3.62s5.95,10.32,17.59,8c0,0,11-1,11.81-11.61h.07C265.6,633,244.47,633.8,244.47,633.8Z" fill="#e6e7e8"/><path d="M235.9,575.69s-3.61,7.48,0,11.61c0,0,8.78-8.78,18.73-3.36v-8.25a4.88,4.88,0,0,0-4-4.4Z" fill="#d1d3d4"/><path d="M314.77,473.08v25.69c-2.12,23.44-19.21,24.87-19.21,24.87-6.12-.61-7.91-4.23-7.93-8.2a24.88,24.88,0,0,1,2.08-9,18.8,18.8,0,0,0,1.34-6l1.29-22.69,10-16.73c3.64-1.43,6.21-1.1,8,.13C315,464.26,314.77,473.08,314.77,473.08Z" fill="#b16c43"/><path d="M317.61,500c-2.39,21.57-15.27,27.21-20.85,28.65a8.19,8.19,0,0,1-5.65-.38c-5.93-2.94-3.76-11.76-3.48-12.79,0,4,1.81,7.59,7.93,8.2,0,0,17.09-1.43,19.21-24.87V473.08s.22-8.82-4.42-11.93v0C321.45,461.26,317.61,500,317.61,500Z" fill="#e6e7e8"/><path d="M208.41,400.39s-1.19,11.16,6.78,31.08c0,0,6.77,24.3,5.17,44.22,0,0-4.78,28.68,2.4,54.58l13.14,45.42s6,4.61,12.21.78a5.41,5.41,0,0,0,2.5-4.79,134.77,134.77,0,0,1,.64-18.84,108.1,108.1,0,0,0,.91-16.18c-.31-13-1.27-34.78-4.19-46.19a6.06,6.06,0,0,1,.59-4.49c3-5.24,9.55-23.58,3.75-79.52C252.31,406.46,234.08,396.22,208.41,400.39Z" fill="#f7a48b"/><path d="M300.74,231.25s-1.2-5,4.55-6.7c0,0,.72,5.75,8.14,5.27,0,0,4.07,0,6.7-5.27,0,0,6.22,12.45,6.46,32.79,0,0,3.94,35.44-23.88,22.75,0,0,3.06-19.35-2-29.69a20.07,20.07,0,0,0,1.17-7.66Z" fill="#b16c43"/><path d="M300.74,231.25s-1.2-5,4.55-6.7c0,0,.72,5.75,8.14,5.27,0,0,4.07,0,6.7-5.27,0,0,6.22,12.45,6.46,32.79,0,0,3.94,35.44-23.88,22.75,0,0,3.06-19.35-2-29.69a20.07,20.07,0,0,0,1.17-7.66Z" opacity="0.2"/><path d="M235.4,200.93s3.74,9.78,0,15.38c0,0,3.37,2.45,6.41,5a20.76,20.76,0,0,0,11.69,5.23,15.18,15.18,0,0,0,4.72-.73l5.61-10.44L238,200.16A7.2,7.2,0,0,1,235.4,200.93Z" fill="#f9b499"/><path d="M299.07,297.64c4.46,12.91-1.43,16.76-1.43,16.76a6,6,0,0,1-3.33,1.27c-10.19,1.68-38-2.84-38-2.84-13.74,11.71-25.38-.51-25.38-.51-6.35.94-10.68.51-13.65-.63a8.94,8.94,0,0,1-6.18-7.94,10,10,0,0,1,.8-4.6c2.65-6.32,5-18.42,5-18.42,3.19-13.4.17-60.39.17-60.39a21.58,21.58,0,0,1,6.22-1.54c7.81,1,12.13-2.5,12.13-2.5l6.41,5c9.05,7.32,16.4,4.49,16.4,4.49a85.36,85.36,0,0,0,29.6-6.3c6.7-.47,12.93,11.73,12.93,11.73,2.64,15.08,0,19.14,0,19.14C308.63,263.8,299.07,297.64,299.07,297.64Z" fill="#b16c43"/><path d="M305.29,224.55v-7.5s-1.6-3.35,1.75-11.33a79.92,79.92,0,0,0,2.08-11.49s0-6.86,3.19-6.06c0,0,3.6-1.44,1.4,15,0,0,19.82-13.09,24.45-10.85,0,0,3.1,1.75-11.38,9.41a3.63,3.63,0,0,1,.69,4.6s3.19,2.58.8,5c0,0,2.07,5.9-2.71,8.61,0,0-6.62,1.81-5.43,4.63,0,0-2.24,5.78-7.5,5.28C312.63,229.83,306.41,230.61,305.29,224.55Z" fill="#f9b499"/><path d="M326.78,201.73s-6.49-.32-9.36,3.51c0,0-2.56,3.19.79,4.47,0,0-2.39,3.31,1.12,3.49,0,0-3.05,4,6.89,2.19a6.47,6.47,0,0,1,2.34.36" fill="none" stroke="#f7a48b" stroke-miterlimit="10"/><path d="M318.21,209.71s5.59-3.73,9.26-3.38" fill="none" stroke="#f7a48b" stroke-miterlimit="10"/><path d="M319.33,213.2s4.95-2.53,8.94-1.89" fill="none" stroke="#f7a48b" stroke-miterlimit="10"/><path d="M318.66,407.4c-11.4-2.52-24.6,1.76-24.6,1.76a43.22,43.22,0,0,1-16.13,5.92c-13.45,1.79-20.46-5.92-20.46-5.92a64.59,64.59,0,0,0-15.19-6.41,87.06,87.06,0,0,0-33.87-2.36c-23.3,6.94-36.57-1.52-42.45-7.31a4.89,4.89,0,0,1,.27-7.26c10.52-8.71,23.86-29.87,23.86-31.63,11.55-20.74,27.19-42.5,27.19-42.5,3,1.14,7.3,1.57,13.65.63,0,0,11.64,12.22,25.38.51,0,0,27.81,4.52,38,2.84,6.23,9.33,15.44,43.42,20,61.48A112.21,112.21,0,0,1,317.26,395a28.51,28.51,0,0,0,2.85,10.57A1.28,1.28,0,0,1,318.66,407.4Z" fill="#2f2e41"/><path d="M299.22,457.84c1,18.19-14.36,15-14.36,15l-37.33-15.64c-21.72-11-6.55-51.14-5.25-54.47a64.59,64.59,0,0,1,15.19,6.41s7,7.71,20.46,5.92l1-.14-8.73,15.78c7.66-1,15,9.56,15,9.56Z" fill="#f9b499"/><path d="M303.65,476c-6.42,8.29-18.79-3.17-18.79-3.17s15.32,3.17,14.36-15C311.87,469.28,303.65,476,303.65,476Z" fill="#d1d3d4"/><path d="M647.91,152.09c-15.26,25.7-29.56,21.45-29.56,21.45a6.73,6.73,0,0,0-.55-2.5,6.25,6.25,0,0,0-2.39-2.93v0a13,13,0,0,0,1.72-1.3c8.33-7.39,7.55-22.29-1.14-35.34v0a4.18,4.18,0,0,0,4.67-1.72,31.22,31.22,0,0,1,9,6.52C633,142.35,647.91,152.09,647.91,152.09Z" fill="#f9b499"/><path d="M700.86,185.9l-13.41,30.22s-2.68,27.7-8.26,43.52c0,0,4,26.65,1.72,38.81,0,0,2.32,5.22.4,39,0,0-9.09,3.87-30.7-9.07a20.67,20.67,0,0,0-12.37-2.7l-18.72-39.39s-28.47-4.13-43.84,21.83c0,0-5.4-19.4,2.28-25.44a20.52,20.52,0,0,0,3.43-3.22,42.55,42.55,0,0,0,5.87-9.74s.31-2.08,2.54-.81c0,0-.47-6.23,3.51-6.86a98.1,98.1,0,0,0,1.14-22.49S578.45,203,617.8,171a6.73,6.73,0,0,1,.55,2.5s14.3,4.25,29.56-21.45C647.91,152.09,706.87,153.26,700.86,185.9Z" fill="#b16c43"/><path d="M575.68,308.12s-.2,29.27,16.18,29.87c0,0-16.74,45.54-16.18,58.49,0,0,16.18,12.19,26.08,14.47a506.73,506.73,0,0,0,30.85-57.12s17.52-30.1,22.09-45.71c0,0,4.66-27.28-35.18-21.83C619.52,286.29,590.74,281.45,575.68,308.12Z" fill="#2f2e41"/><path d="M591.86,338s8.73-32.53,23.41-40.91" fill="none" stroke="#000" stroke-miterlimit="10" opacity="0.2"/><path d="M635,596.62s-12.34-19.81,2.92-15.91c0,0-5.66-18.51,9.19-14.62,0,0,10.2,1.54,11.06,11.49,0,0,4.43.85,4.75,6.7l2.76,11.63a2.75,2.75,0,0,0,.63,1.22c1.64,1.85,7.14,8.44,9,15.25a6.44,6.44,0,0,1-3.67,7.63,12,12,0,0,1-6.58.8,10.09,10.09,0,0,0-1.9-.16,19.39,19.39,0,0,0-8.25,2,10.34,10.34,0,0,1-5.13,1.16c-3.88-.07-9.48-1.09-9.9-6.37C639.89,617.4,632.84,609.43,635,596.62Z" fill="#b16c43"/><path d="M673.18,628.17c-8.67,5-22.9,3.77-22.9,3.77l.18-.24a11.24,11.24,0,0,0,5.09-2.8l1.88-1.76s2.57-4.37,8.83-.53a11.1,11.1,0,0,0,6.84,1.57Z" fill="#b16c43"/><path d="M570.42,415.13s-.08-1.84,3.42-6.45a27,27,0,0,0,3.57-10.94l19.84,11.71s-2.18,4.53-2.18,14.21C595.07,423.66,574.34,426.42,570.42,415.13Z" fill="#f9b499"/><path d="M551.39,447.62s-7.47,14.37,2.9,12.14c0,0,1.15.3,8.76-1.54,0,0,6.83-1.61,10.79,2.76,0,0,5.95,8.3,10.84,6.32a4.42,4.42,0,0,0,2.57-3.72c.25-2.39.33-6.31-1.86-6C585.39,457.61,563.47,442.78,551.39,447.62Z" fill="#e6e7e8"/><path d="M356.35,181.15s69.23-23.25,97.21-76.59a36.33,36.33,0,0,0,4.29-17.78c-.17-6.39-2.21-13.47-9.69-16.2a18.44,18.44,0,0,0-16.66,2.06c-6.24,4.21-14,13.89-14.43,36.06,0,0-4.5-28.19-19.66-30.77-6.1-1-12.07,2.7-14.42,8.42-2.9,7.05-3.24,19.81,12.06,40.3,0,0,33,45,128.54,59.6" fill="none" stroke="#b16c43" stroke-miterlimit="10"/><path d="M263.83,215.39l-4.93,9.16s-15.54-.62-17.44-17.89Z" fill="#f7a48b"/><ellipse cx="258.22" cy="186.28" rx="22.82" ry="30.03" fill="#f9b499"/><path d="M186.89,255.83s-8.94,6.06-13.09-5.43c0,0-1.91-8.3,8.94-16.91,0,0,13.08-8.62,11.49-19.47,0,0,0-13.72,8.93-16.92,0,0,11.17-7.34,12.77-18.19,0,0,10.53-48.51,49.79-30.32,0,0,27.45,10.48,14.84,31.57,0,0-2-14.57-12.42-20.95a3.83,3.83,0,0,0-2.76-.5c-3.64.74-13.06,3.65-15.62,14.14,0,0-4.47,11.81-14.36,12.13v16s4.46,10.65,0,15.38c0,0-3.2,3.13-12.13,2.5,0,0-21.38.63-17.55,28.72,0,0,.95,14.36,8.93,23,0,0-8.93,6.06-13.08-6.39C201.57,264.12,188.16,268.27,186.89,255.83Z" fill="#2f2e41"/><ellipse cx="235.4" cy="192.95" rx="6.06" ry="7.98" fill="#f9b499"/><path d="M239.38,246.66a2.61,2.61,0,0,1-3.91-.26,18.29,18.29,0,0,1-2.71-7s-.55-12.24-15.71-19c0,0-18.32,4.2-9.6,36.33,0,0,5.49,22.54,26.27,27.58A15,15,0,0,0,245,282.63c4.54-2.72,10.91-8.34,16.3-19.78,0,0,9.37-20.24,17.64-26.29a3.18,3.18,0,0,0,1-3.89c-3.13-7-12.09-24.94-18.52-16.66C261.38,216,246.13,240,239.38,246.66Z" fill="#b16c43"/><path d="M239.38,246.66a2.61,2.61,0,0,1-3.91-.26,18.29,18.29,0,0,1-2.71-7s-.55-12.24-15.71-19c0,0-18.32,4.2-9.6,36.33,0,0,5.49,22.54,26.27,27.58A15,15,0,0,0,245,282.63c4.54-2.72,10.91-8.34,16.3-19.78,0,0,9.37-20.24,17.64-26.29a3.18,3.18,0,0,0,1-3.89c-3.13-7-12.09-24.94-18.52-16.66C261.38,216,246.13,240,239.38,246.66Z" opacity="0.2"/><path d="M266.64,214.19s-.56-6.87,9-15.5c0,0,4.51-5.13,6.31-8.57a.94.94,0,0,1,1.74.2c.55,2.13.58,5.74-2.64,10.61,0,0,23.47-4.63,23.88-.92a.44.44,0,0,1-.09.31c-.4.58-2.65,2.64-14.88,6,0,0,3.18,2.65.45,4.9,0,0,3.41,2.76-.23,4.55,0,0,1.88,3.69-2.35,3.77,0,0-7.66,3.16-12.56,4.07C275.25,223.59,271.51,216.51,266.64,214.19Z" fill="#f7a48b"/><path d="M614.33,167.18s4.35,2.75,4,6.36c0,0,20.49-8.74,3.25-30.22Z" fill="#f7a48b"/><path d="M617.13,166.79a13,13,0,0,1-1.72,1.3c-9.88,6.61-26.43,1.79-38.25-11.53-12.51-14.12-14.92-32.41-5.38-40.88s27.43-3.89,39.94,10.23a48.34,48.34,0,0,1,4.27,5.52v0C624.68,144.5,625.46,159.4,617.13,166.79Z" fill="#f9b499"/><path d="M569.67,132.85s18.87,3,24.77-5.66l-1.92-1.26a10.93,10.93,0,0,0,6.47-3.2s9.81,4.62,10.53,10.61c0,0,1.91-5.67,0-10.61h11.92a15.16,15.16,0,0,1-.78,7s6.29,3.35,9,6.53c0,0,1.92-15.32-1.91-20.59h4.07a13,13,0,0,1-4.52-6.33,35.92,35.92,0,0,0-4.31-8.52C618,94,608.22,84.94,594.44,94.34c0,0,0-5.51-9.34-2.87,0,0,4.55,1.19,5.51,3.11,0,0-9.1.48-16,4.78,0,0-7.9,4.79-13.16,3.59a8.11,8.11,0,0,0,8.37.72s-8.61,8.86-6.7,16c0,0-3.35,11.73-8.14,14.36,0,0,5.27.48,6.94-4.55,0,0-4.8,18.41,9.33,18.78,0,0-.68-1.13-1.3-2.44,0,0,5.26,1.86,11.36-2.57C581.27,143.29,570.28,141.08,569.67,132.85Z" fill="#2f2e41"/><ellipse cx="615.4" cy="122.73" rx="5.81" ry="9.27" transform="translate(-3.98 223.5) rotate(-20.52)" fill="#f9b499"/><path d="M593.36,209.64s-7.05,0-4.93-9.46c0,0,2.51-21.43,12-17.57,0,0,20.28,10.62,34.56,14.29,0,0,9.93,1.3,15.29,3.45a2.28,2.28,0,0,0,2.54-.56c1.7-1.83,4.76-6,6.5-13.51,0,0,12-27.79,33.21-15.25,0,0,16,7.91,3.67,30.89,0,0-19.89,41.7-46.15,33.59L620.1,221.22S600.22,211,593.36,209.64Z" fill="#b16c43"/><path d="M593.36,209.64s-7.05,0-4.93-9.46c0,0,2.51-21.43,12-17.57,0,0,20.28,10.62,34.56,14.29,0,0,9.93,1.3,15.29,3.45a2.28,2.28,0,0,0,2.54-.56c1.7-1.83,4.76-6,6.5-13.51,0,0,12-27.79,33.21-15.25,0,0,16,7.91,3.67,30.89,0,0-19.89,41.7-46.15,33.59L620.1,221.22S600.22,211,593.36,209.64Z" opacity="0.2"/><path d="M595.07,433.57c5.53-12.22-5.3-9.61-5.3-9.61a6.69,6.69,0,0,0,1.62-2.32c1.8-4.21-1.12-8.91-5.6-9.88-7.5-1.61-15.37,3.37-15.37,3.37-11.75-2.3-9.91,18.44-9.91,18.44s-18,18.2-3.46,17.51c0,0,11.9-1.62,17,3.68,0,0,15,12.91,15.48-2.76C589.54,452,590.11,444.52,595.07,433.57Z" fill="#b16c43"/></svg>