<svg width="250" height="95" viewBox="0 0 250 95" fill="none" xmlns="http://www.w3.org/2000/svg">
<g clip-path="url(#clip0_425_30715)">
<path d="M74.1851 7.49023H81.6526C86.0388 7.49023 90.0369 8.65585 90.0369 14.0696C90.0369 19.5937 85.7068 20.7316 81.5976 20.7316H78.6824V28.0334H74.1851V7.49023ZM81.7638 17.234C84.5678 17.234 85.6226 16.1515 85.6226 14.1804C85.6226 12.2646 84.5959 11.1817 81.7638 11.1817H78.6824V17.2336H81.7638V17.234Z" fill="#003A5D"/>
<path d="M91.6265 17.7607C91.6265 10.5432 96.3454 7.10059 101.315 7.10059C106.257 7.10059 110.976 10.5432 110.976 17.7607C110.976 24.9782 106.257 28.4212 101.315 28.4212C96.3454 28.4212 91.6265 24.9794 91.6265 17.7607ZM106.479 17.7607C106.479 13.4583 104.479 10.8486 101.315 10.8486C98.1223 10.8486 96.1512 13.4583 96.1512 17.7607C96.1512 22.0631 98.1223 24.7843 101.315 24.7843C104.479 24.7843 106.479 22.0642 106.479 17.7607Z" fill="#003A5D"/>
<path d="M113.692 7.49023H121.159C125.546 7.49023 129.544 8.65585 129.544 14.0696C129.544 19.5937 125.214 20.7316 121.104 20.7316H118.189V28.0334H113.692V7.49023ZM121.271 17.234C124.075 17.234 125.129 16.1515 125.129 14.1804C125.129 12.2646 124.103 11.1817 121.271 11.1817H118.189V17.2336H121.271V17.234Z" fill="#003A5D"/>
<path d="M131.542 20.1761V7.49023H136.067V20.0661C136.067 23.0363 137.205 24.7023 139.898 24.7023C142.563 24.7023 143.674 23.0636 143.674 20.0661V7.49023H148.115V20.1492C148.115 25.2017 145.562 28.3661 139.843 28.3661C134.124 28.3661 131.542 25.2017 131.542 20.1761" fill="#003A5D"/>
<path d="M151.661 7.49023H156.187V24.3696H165.236V28.0322H151.661V7.49023Z" fill="#003A5D"/>
<path d="M173.766 7.40527H178.069L185.343 28.0323H180.762L179.234 23.4518H172.239L170.656 28.0323H166.492L173.765 7.40527H173.766ZM178.18 20.175L175.821 13.1798H175.765L173.35 20.175H178.18Z" fill="#003A5D"/>
<path d="M189.753 11.2652H183.645V7.49023H200.414V11.2652H194.279V28.0326H189.753V11.2652Z" fill="#003A5D"/>
<path d="M207.083 7.49023H202.586V28.0322H207.083V7.49023Z" fill="#003A5D"/>
<path d="M210.01 17.7607C210.01 10.5432 214.729 7.10059 219.699 7.10059C224.641 7.10059 229.36 10.5432 229.36 17.7607C229.36 24.9782 224.641 28.4212 219.699 28.4212C214.729 28.4212 210.01 24.9794 210.01 17.7607ZM224.863 17.7607C224.863 13.4583 222.863 10.8486 219.699 10.8486C216.506 10.8486 214.535 13.4583 214.535 17.7607C214.535 22.0631 216.506 24.7843 219.699 24.7843C222.863 24.7843 224.863 22.0642 224.863 17.7607Z" fill="#003A5D"/>
<path d="M232.211 7.49023H236.737L245.342 20.5924H245.398V7.49023H249.562V28.0322H245.398L236.431 14.8186H236.375V28.0322H232.211V7.49023Z" fill="#003A5D"/>
<path d="M73.2139 49.3191C73.2139 42.1843 77.3497 38.6855 82.541 38.6855C87.7324 38.6855 89.9809 41.4618 90.8692 45.1548L86.5945 46.4035C85.9282 44.0446 84.9284 42.4336 82.5133 42.4336C79.4047 42.4336 77.7393 45.0717 77.7393 49.3187C77.7393 53.6488 79.4601 56.37 82.5695 56.37C84.9846 56.37 86.1783 54.8432 86.8995 52.0388L91.1477 52.9832C90.1482 57.119 87.7051 60.0057 82.5414 60.0057C77.1838 60.0057 73.2142 56.5639 73.2142 49.3187" fill="#003A5D"/>
<path d="M92.8389 49.3466C92.8389 42.1291 97.5582 38.6865 102.528 38.6865C107.47 38.6865 112.189 42.1291 112.189 49.3466C112.189 56.5642 107.47 60.0071 102.528 60.0071C97.5586 60.0071 92.8389 56.5653 92.8389 49.3466ZM107.692 49.3466C107.692 45.0443 105.692 42.4345 102.528 42.4345C99.3351 42.4345 97.3643 45.0443 97.3643 49.3466C97.3643 53.649 99.3355 56.3703 102.528 56.3703C105.692 56.3703 107.692 53.6501 107.692 49.3466Z" fill="#003A5D"/>
<path d="M114.572 51.7618V39.0752H119.097V51.6514C119.097 54.622 120.234 56.2881 122.928 56.2881C125.593 56.2881 126.704 54.6489 126.704 51.6514V39.0752H131.145V51.7349C131.145 56.7874 128.591 59.9518 122.873 59.9518C117.154 59.9518 114.572 56.7874 114.572 51.7618Z" fill="#003A5D"/>
<path d="M134.691 39.0762H139.216L147.822 52.1787H147.877V39.0762H152.041V59.6182H147.877L138.911 46.4045H138.855V59.6182H134.691V39.0762Z" fill="#003A5D"/>
<path d="M154.916 49.3191C154.916 42.1843 159.052 38.6855 164.243 38.6855C169.435 38.6855 171.683 41.4618 172.571 45.1548L168.297 46.4035C167.631 44.0446 166.631 42.4336 164.215 42.4336C161.107 42.4336 159.441 45.0717 159.441 49.3187C159.441 53.6488 161.162 56.37 164.272 56.37C166.687 56.37 167.88 54.8432 168.602 52.0388L172.85 52.9832C171.851 57.119 169.407 60.0057 164.244 60.0057C158.886 60.0057 154.916 56.5639 154.916 49.3187" fill="#003A5D"/>
<path d="M180.051 39.0762H175.554V59.6182H180.051V39.0762Z" fill="#003A5D"/>
<path d="M183.875 39.0762H188.4V55.9555H197.451V59.6182H183.875V39.0762Z" fill="#003A5D"/>
<path d="M76.263 79.1074H74.2607V90.8618H76.263V79.1074Z" fill="#003A5D"/>
<path d="M78.0956 86.668C78.0956 83.746 79.5412 82.2681 81.7013 82.2681C82.607 82.2681 83.4956 82.6331 84.1156 83.3324V79.1074H86.0689V88.7966C86.0689 89.8131 86.1327 90.433 86.3239 90.8622H84.3054C84.1953 90.6235 84.1153 90.1473 84.1153 89.7178C83.4953 90.433 82.6859 90.9897 81.4308 90.9897C79.509 90.9897 78.0952 89.5911 78.0952 86.668H78.0956ZM84.1153 88.32V84.9362C83.5909 84.2536 82.8279 83.8886 82.1297 83.8886C80.6526 83.8886 80.0489 84.8406 80.0489 86.7165C80.0489 88.4953 80.8119 89.3854 82.066 89.3854C82.876 89.3854 83.6546 88.8766 84.1153 88.3204" fill="#003A5D"/>
<path d="M87.5312 86.6517C87.5312 83.444 89.8021 82.2686 91.549 82.2686C93.4401 82.2686 95.2508 83.3955 95.2508 86.8278V87.2884H89.4849C89.5642 88.8134 90.5007 89.4804 91.7407 89.4804C92.8357 89.4804 93.472 89.1139 94.1064 88.4954L95.14 89.5111C94.2658 90.4806 93.1062 91.0372 91.598 91.0372C89.4853 91.0372 87.5316 89.7498 87.5316 86.6521L87.5312 86.6517ZM93.4561 85.8272C93.3453 84.5398 92.7097 83.8572 91.5346 83.8572C90.5811 83.8572 89.7073 84.3983 89.5172 85.8272H93.4564H93.4561Z" fill="#003A5D"/>
<path d="M96.2103 88.8285C96.2103 87.0023 97.766 85.7787 101.706 85.3336V85.0794C101.706 84.2378 101.262 83.8724 100.324 83.8724C99.149 83.8724 98.1955 84.4442 97.4811 85.0156L96.5279 83.7935C97.4329 82.9678 98.8466 82.2686 100.594 82.2686C102.849 82.2686 103.627 83.348 103.627 85.318V88.7967C103.627 89.8139 103.691 90.4328 103.866 90.8623H101.896C101.785 90.5117 101.706 90.2586 101.706 89.7817C100.848 90.6559 99.8468 90.9886 98.592 90.9886C97.2257 90.9886 96.21 90.2256 96.21 88.8285H96.2103ZM101.706 88.5106V86.6517C99.3706 86.9689 98.1314 87.5419 98.1314 88.4635C98.1314 89.1306 98.592 89.48 99.3069 89.48C100.307 89.48 101.086 89.0975 101.706 88.5106Z" fill="#003A5D"/>
<path d="M104.826 89.7022L105.89 88.5115C106.525 89.0515 107.462 89.5121 108.543 89.5121C109.592 89.5121 110.227 89.2416 110.227 88.5438C110.227 87.8608 109.37 87.654 108.352 87.4154C106.907 87.0815 105.175 86.7009 105.175 84.7465C105.175 83.2697 106.446 82.2695 108.305 82.2695C109.909 82.2695 110.894 82.7286 111.767 83.4602L110.83 84.7309C110.211 84.2221 109.21 83.8085 108.447 83.8085C107.367 83.8085 107.018 84.191 107.018 84.6672C107.018 85.3497 107.86 85.5565 108.861 85.7796C110.306 86.0976 112.068 86.4622 112.068 88.4322C112.068 90.2099 110.464 91.0366 108.543 91.0366C106.986 91.0366 105.588 90.4815 104.826 89.7022Z" fill="#003A5D"/>
<path d="M122.066 79.1074H129.658V80.9492H124.052V83.8731H128.165V85.6359H124.052V89.0512H129.976V90.8618H122.066V79.1074Z" fill="#003A5D"/>
<path d="M129.903 82.4277H131.952L134.017 88.6546H134.048L136.098 82.4277H137.988L134.938 90.8784H132.953L129.903 82.4277Z" fill="#003A5D"/>
<path d="M139.075 79.2656H141.077V80.9655H139.075V79.2656ZM139.091 82.4278H141.061V90.8622H139.091V82.4278Z" fill="#003A5D"/>
<path d="M142.602 86.668C142.602 83.746 144.048 82.2681 146.208 82.2681C147.113 82.2681 148.002 82.6331 148.622 83.3324V79.1074H150.576V88.7966C150.576 89.8131 150.64 90.433 150.831 90.8622H148.812C148.701 90.6235 148.622 90.1473 148.622 89.7178C148.002 90.433 147.193 90.9897 145.937 90.9897C144.016 90.9897 142.602 89.5911 142.602 86.668ZM148.622 88.32V84.9362C148.098 84.2536 147.335 83.8886 146.637 83.8886C145.159 83.8886 144.556 84.8406 144.556 86.7165C144.556 88.4953 145.319 89.3854 146.573 89.3854C147.383 89.3854 148.161 88.8766 148.622 88.3204" fill="#003A5D"/>
<path d="M152.038 86.6517C152.038 83.444 154.309 82.2686 156.057 82.2686C157.947 82.2686 159.758 83.3955 159.758 86.8278V87.2884H153.992C154.071 88.8134 155.008 89.4804 156.248 89.4804C157.343 89.4804 157.979 89.1139 158.614 88.4954L159.647 89.5111C158.773 90.4806 157.613 91.0372 156.105 91.0372C153.992 91.0372 152.038 89.7498 152.038 86.6521V86.6517ZM157.963 85.8272C157.852 84.5398 157.217 83.8572 156.041 83.8572C155.088 83.8572 154.214 84.3983 154.024 85.8272H157.963H157.963Z" fill="#003A5D"/>
<path d="M161.263 82.4272H163.233V83.5715C163.773 82.999 164.79 82.2686 166.314 82.2686C167.792 82.2686 168.745 83.142 168.745 84.8104V90.8611H166.775V85.3029C166.775 84.3649 166.378 83.9354 165.521 83.9354C164.663 83.9354 163.947 84.3805 163.233 85.0312V90.8611H161.263V82.4268L161.263 82.4272Z" fill="#003A5D"/>
<path d="M170.18 86.6527C170.18 83.4283 172.355 82.2695 174.23 82.2695C176.327 82.2695 177.217 83.4287 177.725 84.7313L176.073 85.3194C175.739 84.3659 175.135 83.9045 174.199 83.9045C173.086 83.9045 172.15 84.6357 172.15 86.6531C172.15 88.4482 172.88 89.4332 174.166 89.4332C175.056 89.4332 175.675 89.1638 176.136 87.9712L177.756 88.5601C177.153 89.909 176.152 91.037 174.118 91.037C172.165 91.037 170.179 89.7341 170.179 86.6527" fill="#003A5D"/>
<path d="M178.619 86.6517C178.619 83.444 180.89 82.2686 182.637 82.2686C184.528 82.2686 186.338 83.3955 186.338 86.8278V87.2884H180.572C180.652 88.8134 181.588 89.4804 182.828 89.4804C183.923 89.4804 184.56 89.1139 185.194 88.4954L186.227 89.5111C185.353 90.4806 184.194 91.0372 182.685 91.0372C180.572 91.0372 178.619 89.7498 178.619 86.6521V86.6517ZM184.544 85.8272C184.433 84.5398 183.797 83.8572 182.622 83.8572C181.669 83.8572 180.795 84.3983 180.605 85.8272H184.544H184.544Z" fill="#003A5D"/>
<path d="M198.004 79.1074H196.002V90.8618H198.004V79.1074Z" fill="#003A5D"/>
<path d="M200.208 82.4272H202.161V83.5871C202.813 82.8722 203.766 82.2686 205.052 82.2686C206.466 82.2686 207.022 82.824 207.355 83.6508C208.023 82.92 209.023 82.2686 210.31 82.2686C212.025 82.2686 212.772 83.2998 212.772 84.8104V90.8611H210.818V85.3029C210.818 84.3649 210.548 83.9354 209.626 83.9354C208.833 83.9354 208.197 84.3805 207.468 85.0312V90.8611H205.513V85.3029C205.513 84.3649 205.243 83.9354 204.322 83.9354C203.544 83.9354 202.892 84.3805 202.161 85.0312V90.8611H200.208V82.4268L200.208 82.4272Z" fill="#003A5D"/>
<path d="M214.68 82.4272H216.633V83.5385C217.189 82.8722 218.063 82.2686 219.318 82.2686C221.24 82.2686 222.653 83.7134 222.653 86.6366C222.653 89.5597 221.208 90.9894 219.048 90.9894C218.143 90.9894 217.253 90.6229 216.633 89.9251V94.0389H214.68V82.4275V82.4272ZM220.7 86.6521C220.7 84.8733 219.937 83.9358 218.683 83.9358C217.872 83.9358 217.094 84.4446 216.633 85.0008V88.3835C217.158 89.0672 217.921 89.4322 218.619 89.4322C220.096 89.4322 220.7 88.5265 220.7 86.6521Z" fill="#003A5D"/>
<path d="M223.621 88.8285C223.621 87.0023 225.177 85.7787 229.117 85.3336V85.0794C229.117 84.2378 228.673 83.8724 227.735 83.8724C226.56 83.8724 225.607 84.4442 224.892 85.0156L223.939 83.7935C224.844 82.9678 226.258 82.2686 228.005 82.2686C230.26 82.2686 231.038 83.348 231.038 85.318V88.7967C231.038 89.8139 231.102 90.4328 231.277 90.8623H229.307C229.196 90.5117 229.117 90.2586 229.117 89.7817C228.259 90.6559 227.259 90.9886 226.003 90.9886C224.637 90.9886 223.621 90.2256 223.621 88.8285H223.621ZM229.117 88.5106V86.6517C226.782 86.9689 225.543 87.5419 225.543 88.4635C225.543 89.1306 226.003 89.48 226.718 89.48C227.718 89.48 228.497 89.0975 229.117 88.5106Z" fill="#003A5D"/>
<path d="M232.41 86.6527C232.41 83.4283 234.585 82.2695 236.46 82.2695C238.557 82.2695 239.447 83.4287 239.955 84.7313L238.303 85.3194C237.969 84.3659 237.365 83.9045 236.429 83.9045C235.316 83.9045 234.38 84.6357 234.38 86.6531C234.38 88.4482 235.11 89.4332 236.396 89.4332C237.286 89.4332 237.905 89.1638 238.366 87.9712L239.986 88.5601C239.383 89.909 238.382 91.037 236.348 91.037C234.395 91.037 232.409 89.7341 232.409 86.6527" fill="#003A5D"/>
<path d="M242.145 88.6544V83.9844H240.684V82.4279H242.145V79.4893H244.098V82.4279H246.275V83.9844H244.098V88.1623C244.098 89.068 244.369 89.433 245.338 89.433C245.624 89.433 245.989 89.3859 246.179 89.3207V90.8619C245.973 90.9101 245.243 90.9727 244.75 90.9727C242.605 90.9727 242.145 90.179 242.145 88.654" fill="#003A5D"/>
<path d="M22.0777 24.1582C16.8943 24.1582 12.6758 28.3782 12.6758 33.5624C12.6758 38.7466 16.8939 42.967 22.0777 42.967C27.2615 42.967 31.4838 38.7481 31.4838 33.5624C31.4838 28.3767 27.2638 24.1582 22.0777 24.1582Z" fill="#003A5D"/>
<path d="M114.47 88.5195C113.775 88.5195 113.209 89.0856 113.209 89.7808C113.209 90.4759 113.775 91.042 114.47 91.042C115.165 91.042 115.731 90.4763 115.731 89.7808C115.731 89.0853 115.165 88.5195 114.47 88.5195Z" fill="#003A5D"/>
<path d="M55.3713 39.6953H39.9744C37.6489 47.5822 30.1912 53.2922 21.9169 53.3954H14.1587V91.0683H29.2145V67.6745L30.0105 67.4427L30.8756 67.1945C43.5907 63.6412 53.2939 52.6813 55.3713 39.6957" fill="#003A5D"/>
<path d="M22.0775 13.9551C30.5043 13.9551 38.2318 19.6663 40.7736 27.6514H55.1051C52.2726 12.0458 38.0114 0 22.0775 0C13.9168 0 6.12059 2.94248 0 8.30991L9.89934 18.213C13.3548 15.4607 17.6405 13.9551 22.0775 13.9551Z" fill="#6CC049"/>
<path d="M188.666 88.5098C187.971 88.5098 187.405 89.0759 187.405 89.771C187.405 90.4661 187.971 91.0322 188.666 91.0322C189.361 91.0322 189.928 90.4665 189.928 89.771C189.928 89.0755 189.362 88.5098 188.666 88.5098Z" fill="#003A5D"/>
<path d="M248.738 88.5049C248.043 88.5049 247.478 89.071 247.478 89.7661C247.478 90.4612 248.043 91.0273 248.738 91.0273C249.434 91.0273 250 90.4616 250 89.7661C250 89.0706 249.434 88.5049 248.738 88.5049Z" fill="#003A5D"/>
</g>
<defs>
<clipPath id="clip0_425_30715">
<rect width="250" height="94.0388" fill="white"/>
</clipPath>
</defs>
</svg>
